<?xml version="1.0" encoding="utf-8"?>
<!-- Generator: Adobe Illustrator 25.4.1, SVG Export Plug-In . SVG Version: 6.00 Build 0)  -->
<svg version="1.1" id="Layer_1" xmlns="http://www.w3.org/2000/svg" xmlns:xlink="http://www.w3.org/1999/xlink" x="0px" y="0px"
	 viewBox="0 0 88.62 37.21" style="enable-background:new 0 0 88.62 37.21;" xml:space="preserve">
<style type="text/css">
	.st0{opacity:0.4;fill:#E0F5F3;enable-background:new    ;}
	.st1{fill:#00AD9F;}
</style>
<g id="Group_20836" transform="translate(-710.324 -107.669)">
	<path id="Path_98770" class="st1" d="M720.48,115.88h-2.19c-1.92-0.01-3.74,0.84-4.98,2.31c-0.04,0.08-0.16,0.04-0.2,0l-0.82-1.45
		c-0.04-0.04-0.08-0.08-0.12-0.08h-1.72c-0.05-0.01-0.11,0.02-0.12,0.08c0,0.01,0,0.03,0,0.04v27.98c-0.01,0.05,0.02,0.11,0.08,0.12
		c0.01,0,0.03,0,0.04,0h4.11c0.06,0,0.11-0.05,0.12-0.12v-9.01c0-0.08,0.08-0.12,0.16-0.08c1.04,0.64,2.23,0.98,3.45,0.98h2.19
		c3.51,0,6.35-2.85,6.35-6.36c0-0.01,0-0.02,0-0.03v-7.99c0.02-3.51-2.82-6.37-6.33-6.39C720.49,115.88,720.49,115.88,720.48,115.88
		z M722.48,129.4c0.02,1.58-1.24,2.88-2.82,2.9c-0.01,0-0.03,0-0.04,0h-2.08c-1.58,0-2.86-1.28-2.86-2.86c0-0.01,0-0.03,0-0.04
		v-6.27c-0.02-1.58,1.24-2.88,2.82-2.9c0.01,0,0.03,0,0.04,0h2.08c1.58,0,2.86,1.28,2.86,2.86c0,0.01,0,0.03,0,0.04V129.4z"/>
	<path id="Path_98771" class="st1" d="M730.09,107.69h4.04c0.05-0.01,0.11,0.02,0.12,0.08c0,0.01,0,0.03,0,0.04v4.08
		c0.01,0.05-0.03,0.11-0.08,0.12c-0.01,0-0.03,0-0.04,0h-4.04c-0.06,0-0.11-0.05-0.12-0.12v-4.08
		C729.98,107.74,730.03,107.69,730.09,107.69"/>
	<path id="Path_98772" class="st1" d="M729.97,135.79v-19.2c0-0.06,0.05-0.11,0.12-0.12h4.04c0.06-0.01,0.11,0.03,0.12,0.09
		c0,0.01,0,0.02,0,0.03v19.2c0.01,0.06-0.03,0.11-0.09,0.12c-0.01,0-0.02,0-0.03,0h-4.04C730.03,135.9,729.98,135.85,729.97,135.79"
		/>
	<path id="Path_98773" class="st1" d="M747.23,124.31v4c0,0.08-0.04,0.12-0.08,0.12h-9.72c-0.04,0-0.04-0.04-0.04-0.12v-4
		c0-0.04,0-0.12,0.04-0.12h9.72C747.19,124.2,747.23,124.28,747.23,124.31"/>
	<path id="Path_98774" class="st1" d="M758.14,131.54h2.27c0.05-0.01,0.11,0.02,0.12,0.08c0,0.01,0,0.03,0,0.04v4.12
		c0.01,0.05-0.02,0.11-0.08,0.12c-0.01,0-0.03,0-0.04,0h-2.62c-4.12,0-7.45-3.34-7.45-7.46c0-0.01,0-0.02,0-0.03v-20.61
		c-0.01-0.05,0.02-0.11,0.08-0.12c0.01,0,0.03,0,0.04,0h4.11c0.05-0.01,0.11,0.02,0.12,0.08c0,0.01,0,0.03,0,0.04v8.54
		c-0.01,0.05,0.02,0.11,0.08,0.12c0.01,0,0.03,0,0.04,0h5.6c0.06-0.01,0.11,0.03,0.12,0.09c0,0.01,0,0.02,0,0.03v4.11
		c0.01,0.05-0.02,0.11-0.08,0.12c-0.01,0-0.03,0-0.04,0h-5.6c-0.05-0.01-0.11,0.02-0.12,0.08c0,0.01,0,0.03,0,0.04v7.13
		C754.69,129.96,756.23,131.52,758.14,131.54"/>
	<path id="Path_98775" class="st1" d="M773.39,116h-3.8c-3.26,0.01-5.91,2.65-5.92,5.92v8.78c-0.01,3.28,2.64,5.94,5.92,5.96h3.8
		c3.28-0.02,5.92-2.68,5.92-5.96v-8.78C779.29,118.65,776.65,116.01,773.39,116z M775.15,129.44c0.07,1.64-1.18,3.03-2.82,3.13
		h-1.65c-1.65-0.09-2.93-1.48-2.86-3.13v-6.27c-0.06-1.65,1.21-3.05,2.86-3.13h1.65c1.64,0.1,2.89,1.5,2.82,3.13V129.44z"/>
	<path id="Path_98776" class="st1" d="M792.6,115.88h-2.19c-1.92-0.01-3.74,0.84-4.98,2.31c-0.04,0.08-0.16,0.04-0.2,0l-0.82-1.45
		c-0.04-0.04-0.08-0.08-0.12-0.08h-1.72c-0.05-0.01-0.11,0.02-0.12,0.08c0,0.01,0,0.03,0,0.04v27.98c-0.01,0.05,0.02,0.11,0.08,0.12
		c0.01,0,0.03,0,0.04,0h4.11c0.06,0,0.11-0.05,0.12-0.12v-9.01c0-0.08,0.08-0.12,0.16-0.08c1.04,0.64,2.23,0.98,3.45,0.98h2.19
		c3.51,0,6.35-2.85,6.35-6.36c0-0.01,0-0.02,0-0.03v-7.99c0.02-3.51-2.81-6.37-6.32-6.39C792.61,115.88,792.61,115.88,792.6,115.88z
		 M794.6,129.4c0.02,1.58-1.24,2.88-2.82,2.9c-0.01,0-0.03,0-0.04,0h-2.08c-1.58,0-2.86-1.28-2.86-2.86c0-0.01,0-0.03,0-0.04v-6.27
		c-0.02-1.58,1.24-2.88,2.82-2.9c0.01,0,0.03,0,0.04,0h2.08c1.58,0,2.86,1.28,2.86,2.86c0,0.01,0,0.03,0,0.04V129.4z"/>
</g>
</svg>
