<svg xmlns="http://www.w3.org/2000/svg" viewBox="0 0 444.994 303.053" preserveAspectRatio="none">
<defs><style>.a{fill:#00998f;opacity:0.196;}</style></defs>
<g transform="translate(0 0)">
<path class="a" d="M273.86,244.966c6.707-.486,14.21.142,21.08.111q14.545-.064,29.089-.133,49.1-.231,98.2-.485,111.953-.579,223.9-1.4,19.023-.163,38.043-.393c5.107-.07,11.142.419,16.166-.476,6.328-1.128,3.648-8.11-2.7-6.98,2.387-.425-1.32,0-2.471.029-3.029.077-6.062.118-9.092.162q-15.873.229-31.75.348-50.063.453-100.128.726-110.4.688-220.8,1.184-17.96.084-35.918.166c-7.643.034-16.153-.641-23.628-.1-6.43.465-6.5,7.708,0,7.238Z" transform="translate(-263.986 -235.025)"/>
<path class="a" d="M272.166,244.966c4.363-.486,9.244.142,13.714.111q9.462-.064,18.924-.133,31.942-.231,63.883-.485c48.553-.386,97.107-.759,145.658-1.4,8.25-.109,16.5-.219,24.749-.393,3.323-.07,7.249.419,10.517-.476,4.116-1.128,2.373-8.11-1.753-6.98,1.553-.425-.858,0-1.608.029-1.97.077-3.943.118-5.914.162-6.884.153-13.77.252-20.655.348q-32.568.453-65.137.726-71.818.688-143.638,1.184-11.684.084-23.366.166c-4.972.034-10.508-.641-15.371-.1-4.183.465-4.227,7.708,0,7.238Z" transform="translate(245.078 -257.961) rotate(90)"/>
<path class="a" d="M272.166,244.966c4.363-.486,9.244.142,13.714.111q9.462-.064,18.924-.133,31.942-.231,63.883-.485c48.553-.386,97.107-.759,145.658-1.4,8.25-.109,16.5-.219,24.749-.393,3.323-.07,7.249.419,10.517-.476,4.116-1.128,2.373-8.11-1.753-6.98,1.553-.425-.858,0-1.608.029-1.97.077-3.943.118-5.914.162-6.884.153-13.77.252-20.655.348q-32.568.453-65.137.726-71.818.688-143.638,1.184-11.684.084-23.366.166c-4.972.034-10.508-.641-15.371-.1-4.183.465-4.227,7.708,0,7.238Z" transform="translate(680.019 -257.961) rotate(90)"/>
<path class="a" d="M273.86,244.966c6.707-.486,14.21.142,21.08.111q14.545-.064,29.089-.133,49.1-.231,98.2-.485,111.953-.579,223.9-1.4,19.023-.163,38.043-.393c5.107-.07,11.142.419,16.166-.476,6.328-1.128,3.648-8.11-2.7-6.98,2.387-.425-1.32,0-2.471.029-3.029.077-6.062.118-9.092.162q-15.873.229-31.75.348-50.063.453-100.128.726-110.4.688-220.8,1.184-17.96.084-35.918.166c-7.643.034-16.153-.641-23.628-.1-6.43.465-6.5,7.708,0,7.238Z" transform="translate(-263.986 57.975)"/>
</g>
</svg>
