<svg xmlns="http://www.w3.org/2000/svg" viewBox="2.9260001182556152 1.753999948501587 20.77199935913086 20.77199935913086"><style></style><path fill="none" d="M2.926 1.754h20.772v20.772H2.926z"/><path d="M12.408 8.623a2.5 2.5 0 0 0-.833.119c-.417.147-.763.447-1.059.776a4.755 4.755 0 0 0-.836 1.3c-.306.717-.418 1.504-.227 2.255.247.975.987 1.963 1.944 2.326.468.178.993.259 1.53.259.958 0 1.952-.26 2.724-.69.503-.28.948-.694 1.184-1.22.324-.718.229-1.549.108-2.328-.087-.559-.194-1.141-.542-1.587-.321-.412-.81-.658-1.306-.822a7.407 7.407 0 0 0-1.812-.34c-.278-.02-.579-.048-.875-.048" fill="#009e84"/></svg>
