<?xml version="1.0" encoding="utf-8"?>
<!-- Generator: Adobe Illustrator 24.1.0, SVG Export Plug-In . SVG Version: 6.00 Build 0)  -->
<svg version="1.1" id="Layer_1" xmlns="http://www.w3.org/2000/svg" xmlns:xlink="http://www.w3.org/1999/xlink" x="0px" y="0px"
	 viewBox="0 0 47.82 43.74" style="enable-background:new 0 0 47.82 43.74;" xml:space="preserve">
<style type="text/css">
	.st0{fill:#CCEAE6;}
	.st1{fill:none;stroke:#505050;stroke-width:1.6;stroke-linecap:round;stroke-linejoin:round;}
</style>
<path class="st0" d="M18.51,0c-1.62,0-3.22,0.25-4.76,0.75c-2.56,1.04-4.82,2.69-6.58,4.82c-2.16,2.39-3.92,5.13-5.2,8.09
	c-2,4.39-2.49,9.31-1.41,14.01c1.54,6.07,6.14,12.2,12.09,14.46c2.94,1.07,6.05,1.61,9.18,1.61c0.11,0,0.22,0,0.33,0
	c5.91-0.01,11.73-1.48,16.94-4.29c3.2-1.68,5.78-4.34,7.36-7.58c2.01-4.47,1.42-9.63,0.67-14.48c-0.54-3.47-1.21-7.09-3.37-9.87
	c-1.99-2.56-5.04-4.08-8.12-5.11c-3.65-1.17-7.44-1.88-11.27-2.11C22.64,0.19,20.77,0,18.92,0l0,0C18.79,0,18.65,0,18.51,0"/>
<g>
	<path class="st1" d="M24.03,37.85c0.7-0.42,4.19-3.93,4.19-3.93c-4.63,0.42-10.5,0.11-14.14-3.23c-1.74-1.6-2.74-3.88-3.13-6.21"/>
	<line class="st1" x1="24.74" y1="29.38" x2="28.23" y2="33.92"/>
</g>
<g>
	<path class="st1" d="M23.79,5.89c-0.7,0.42-4.19,3.93-4.19,3.93c4.63-0.42,10.5-0.11,14.14,3.23c1.74,1.6,2.74,3.88,3.13,6.21"/>
	<line class="st1" x1="23.08" y1="14.36" x2="19.59" y2="9.82"/>
</g>
</svg>
