<?xml version="1.0" encoding="utf-8"?>
<!-- Generator: Adobe Illustrator 24.1.0, SVG Export Plug-In . SVG Version: 6.00 Build 0)  -->
<svg version="1.1" id="Layer_1" xmlns="http://www.w3.org/2000/svg" xmlns:xlink="http://www.w3.org/1999/xlink" x="0px" y="0px"
	 viewBox="0 0 62.52 62.52" style="enable-background:new 0 0 62.52 62.52;" xml:space="preserve">
<style type="text/css">
	.st0{fill:#FFFFFF;}
	.st1{opacity:0.05;fill:#009781;enable-background:new    ;}
	.st2{fill:#039A84;}
</style>
<g id="Group_34" transform="translate(-928.739 -11091.339)">
	<circle id="Ellipse_1" class="st0" cx="960" cy="11122.6" r="31.26"/>
	<circle id="Ellipse_2" class="st1" cx="960" cy="11122.6" r="31.26"/>
	<circle id="Ellipse_3" class="st2" cx="960" cy="11134.5" r="5.13"/>
	<path id="Path_241" class="st2" d="M950.13,11127.34c-0.49,0.01-0.95-0.2-1.26-0.58c-0.68-0.7-0.68-1.81,0-2.52
		c2.91-2.94,6.89-4.58,11.03-4.55c4.14-0.01,8.1,1.63,11.03,4.55c0.69,0.7,0.68,1.83-0.02,2.52c-0.69,0.68-1.8,0.68-2.5,0
		c-2.24-2.29-5.31-3.58-8.52-3.58c-3.21-0.02-6.28,1.28-8.52,3.58C951.08,11127.14,950.61,11127.35,950.13,11127.34z"/>
	<path id="Path_242" class="st2" d="M974.61,11121.34c-0.49,0.01-0.95-0.2-1.26-0.58c-7.39-7.35-19.33-7.35-26.71,0
		c-0.7,0.69-1.83,0.68-2.52-0.02c-0.68-0.69-0.68-1.8,0-2.5c8.84-8.77,23.1-8.77,31.94,0c0.68,0.7,0.68,1.81,0,2.52
		C975.69,11121.15,975.16,11121.37,974.61,11121.34z"/>
	<path id="Path_243" class="st2" d="M980.32,11115.73c-0.49,0.01-0.95-0.2-1.26-0.58c-10.46-10.53-27.47-10.59-38-0.13
		c-0.04,0.04-0.09,0.09-0.13,0.13c-0.69,0.69-1.82,0.69-2.52,0c-0.69-0.7-0.69-1.82,0-2.52l0,0c11.8-11.92,31.04-12.01,42.96-0.21
		c0.07,0.07,0.14,0.14,0.21,0.21c0.68,0.7,0.68,1.81,0,2.52C981.28,11115.53,980.81,11115.74,980.32,11115.73z"/>
</g>
</svg>
