<?xml version="1.0" encoding="utf-8"?>
<!-- Generator: Adobe Illustrator 23.0.1, SVG Export Plug-In . SVG Version: 6.00 Build 0)  -->
<svg version="1.1" id="Layer_1" xmlns="http://www.w3.org/2000/svg" xmlns:xlink="http://www.w3.org/1999/xlink" x="0px" y="0px"
	 viewBox="0 0 256 256" style="enable-background:new 0 0 256 256;" xml:space="preserve">
<style type="text/css">
	.st0{opacity:0.05;fill:#FFFFFF;}
	.st1{opacity:0.2;fill:#009B85;}
	.st2{fill:#009B85;}
</style>
<circle class="st0" cx="128" cy="128" r="128"/>
<path class="st1" d="M123.52,55.01c-43.27,0-78.34,35.09-78.34,78.34c0,43.25,35.07,78.34,78.34,78.34
	c43.25,0,78.31-35.09,78.31-78.34C201.84,90.1,166.77,55.01,123.52,55.01z"/>
<g>
	<path class="st2" d="M115.99,107.02c-0.23-0.51-0.34-1-0.31-1.47c0.02-0.47,0.13-0.74,0.31-0.84c1.44-0.84,3.11-1.48,5-1.92
		s3.65-0.67,5.28-0.67c1.96,0,3.8,0.22,5.52,0.67s3.22,1.13,4.48,2.06c1.26,0.93,2.25,2.16,2.97,3.67c0.72,1.51,1.08,3.35,1.08,5.49
		c0,3.36-0.82,6.18-2.45,8.46c-1.63,2.29-3.75,4.1-6.36,5.46c-1.91,0.98-3.21,1.89-3.88,2.73c-0.68,0.84-1.01,1.93-1.01,3.29v4.76
		c0,0.23-0.24,0.41-0.73,0.52c-0.49,0.12-1.15,0.17-1.99,0.17h-0.91c-1.91,0-2.87-0.23-2.87-0.7v-4.48c0-1.35,0.13-2.55,0.38-3.6
		c0.26-1.05,0.68-2.01,1.26-2.87c0.58-0.86,1.34-1.65,2.27-2.38c0.93-0.72,2.1-1.43,3.5-2.13c2.1-1.07,3.64-2.22,4.62-3.43
		c0.98-1.21,1.47-2.87,1.47-4.97c0-1.35-0.21-2.47-0.63-3.36s-0.99-1.59-1.71-2.1c-0.72-0.51-1.57-0.87-2.55-1.08
		c-0.98-0.21-2.03-0.32-3.15-0.32c-2.52,0-4.94,0.58-7.27,1.75c-0.19,0.1-0.44,0.05-0.77-0.14c-0.33-0.18-0.63-0.58-0.91-1.19
		L115.99,107.02z M123.47,145c1.21,0,2.26,0.44,3.15,1.33s1.33,1.93,1.33,3.15c0,1.21-0.44,2.25-1.33,3.11
		c-0.89,0.86-1.93,1.29-3.15,1.29c-1.21,0-2.25-0.43-3.11-1.29c-0.86-0.86-1.29-1.9-1.29-3.11c0-1.21,0.43-2.26,1.29-3.15
		S122.26,145,123.47,145z"/>
</g>
<path class="st2" d="M128,208.92c-44.62,0-80.92-36.3-80.92-80.92S83.38,47.08,128,47.08s80.92,36.3,80.92,80.92
	S172.62,208.92,128,208.92z M128,52.26c-41.76,0-75.74,33.98-75.74,75.74s33.98,75.74,75.74,75.74s75.74-33.98,75.74-75.74
	S169.76,52.26,128,52.26z"/>
</svg>
