<svg xmlns="http://www.w3.org/2000/svg" viewBox="2.9260001182556152 1.753999948501587 20.77199935913086 20.77199935913086"><style></style><path fill="none" d="M2.926 1.754h20.772v20.772H2.926z"/><path d="M11.988 6.778c-.44 0-.876.042-1.269.182-.635.225-1.163.682-1.614 1.183a7.248 7.248 0 0 0-1.275 1.983c-.467 1.092-.636 2.292-.346 3.436.377 1.487 1.505 2.992 2.963 3.546.714.27 1.515.394 2.332.394 1.461 0 2.977-.394 4.153-1.05.768-.428 1.445-1.059 1.805-1.86.494-1.096.35-2.362.165-3.55-.133-.851-.297-1.74-.827-2.42-.489-.627-1.235-1.001-1.99-1.253-.892-.297-1.826-.449-2.763-.516-.423-.03-.881-.075-1.334-.075" fill="none" stroke="#505050" stroke-width=".75" stroke-miterlimit="10"/></svg>
