<svg xmlns="http://www.w3.org/2000/svg" width="143.034" height="112.784" viewBox="0 0 143.034 112.784"><defs><style>.a{fill:#e0f5f3;}.b{fill:#00ad9f;}.c{fill:#fff;}.c,.d{stroke:#505050;stroke-linecap:round;stroke-linejoin:round;stroke-width:1.6px;}.d{fill:none;}</style></defs><g transform="translate(-1486.195 -1428.725)"><path class="a" d="M1580.691,1528.368c7.981-.815,16.179-.706,23.775-3.285,6.561-2.228,12.3-6.342,17.722-10.654,3.615-2.875,7.483-6.661,7-11.254-.62-5.845-7.584-8.448-13.386-9.391-35.433-5.754-71.551,2.861-107.443,2.262-5.3-.088-10.988-.274-15.421,2.63-6.7,4.392-7.645,13.928-6.1,21.793,1.073,5.465,3.093,10.9,6.862,15,9.176,9.979,29.159,5.117,40.842,2.782C1549.969,1535.162,1564.979,1529.972,1580.691,1528.368Z"/><path class="b" d="M1517.877,1475.586c.107,3.509.491,7.558,3.354,9.536,1.9,1.313,4.372,1.3,6.671,1.238l56.131-1.508a7.836,7.836,0,0,0,3.9-.786c2.2-1.329,2.582-4.338,2.706-6.929q.968-20.164.166-40.363a7.163,7.163,0,0,0-.7-3.386c-.942-1.6-2.922-2.2-4.734-2.537a88.059,88.059,0,0,0-15.237-1.073l-41.438-.514c-3.874-.048-9.274.041-11.463,4.031-1.585,2.89-.421,7.434-.324,10.6Q1517.391,1459.74,1517.877,1475.586Z"/><path class="b" d="M1499.994,1506.706c-1.4,1.88-2.856,4.338-1.8,6.441.978,1.949,3.495,2.3,5.625,2.4a942.475,942.475,0,0,0,99.272-.432,6.633,6.633,0,0,0,3.994-1.114,4.806,4.806,0,0,0,1.205-4.8,14,14,0,0,0-2.444-4.56l-8.337-11.766a15.683,15.683,0,0,0-3.008-3.469c-2.913-2.254-6.9-2.1-10.537-1.874q-20.268,1.257-40.586,1.261c-6.819,0-13.637-.117-20.453-.315-4.077-.118-8.074-.6-11.153,2.561C1507.324,1495.609,1503.8,1501.577,1499.994,1506.706Z"/><path class="c" d="M1520.325,1473.767c.1,3.352.474,7.219,3.244,9.107,1.839,1.254,4.23,1.241,6.455,1.181l54.315-1.449a7.675,7.675,0,0,0,3.774-.752c2.127-1.269,2.5-4.143,2.619-6.617q.939-19.257.167-38.547a6.769,6.769,0,0,0-.677-3.234c-.911-1.532-2.827-2.1-4.58-2.422a86.365,86.365,0,0,0-14.744-1.022l-40.1-.484c-3.748-.045-8.974.041-11.093,3.852-1.534,2.76-.409,7.1-.316,10.124Q1519.859,1458.636,1520.325,1473.767Z"/><path class="c" d="M1504.085,1504.284c-1.328,1.74-2.719,4.015-1.716,5.96.929,1.8,3.323,2.127,5.348,2.221a921.629,921.629,0,0,0,94.411-.457,6.44,6.44,0,0,0,3.8-1.034,4.364,4.364,0,0,0,1.149-4.44,12.834,12.834,0,0,0-2.321-4.217l-7.922-10.881a14.559,14.559,0,0,0-2.859-3.208c-2.769-2.084-6.561-1.939-10.02-1.728q-19.275,1.174-38.6,1.19c-6.486.005-12.969-.1-19.452-.279-3.877-.108-7.678-.551-10.608,2.375C1511.062,1494.012,1507.71,1499.536,1504.085,1504.284Z"/><path class="d" d="M1525.121,1478.764q29.507.3,59-.887.771-20.631.639-41.282c0-.5-38.758-.939-42.3-.97-4.151-.035-17.55.572-17.55.572s-.036,13.933,0,18.332Z"/><path class="d" d="M1559.981,1442.642c-2.6,7.454-5.937,16.863-10.7,30.354"/><path class="d" d="M1546.061,1466.38c-3.607-2.939-8.234-7.052-10.731-9.369a48.385,48.385,0,0,1,10.316-9.621"/><path class="d" d="M1563.207,1447.383c3.608,2.939,8.234,7.051,10.732,9.368a48.308,48.308,0,0,1-10.317,9.621"/></g></svg>
