<svg xmlns="http://www.w3.org/2000/svg" viewBox="-5.2 -0.2 16.65755 18.628106">
<path fill="#009E84" d="M0.91004,7.02583c0.88977,1.21796,1.66504,2.50058,2.41925,3.7951
	c0.05664,0.10062,0.07178,0.1124,0.06134,0.09753c-0.01019-0.01096-0.03131-0.03937-0.10931-0.08167
	c-0.07355-0.04221-0.2182-0.07172-0.3338-0.04764c-0.2619,0.07382-0.24231,0.14816-0.17804,0.05841l0.18085-0.19046
	c0.23798-0.25778,0.46863-0.52463,0.68542-0.8064c0.43872-0.55835,0.83417-1.16223,1.21057-1.78519
	c0.73779-1.25192,1.43976-2.58362,2.1662-3.89426c0.70947-1.31955,1.47375-2.61053,2.20941-3.91644
	c0.13556-0.24072,0.44067-0.32596,0.6814-0.19034c0.23059,0.12991,0.31775,0.41687,0.20551,0.65225
	C9.46046,2.06813,8.84071,3.4344,8.16621,4.77217C7.49464,6.11088,6.8711,7.4691,6.09083,8.80125
	C5.70204,9.4655,5.2851,10.12397,4.80702,10.75096c-0.23578,0.31516-0.49066,0.61966-0.75665,0.91577l-0.20294,0.2197
	c-0.06262,0.04285-0.177,0.26797-0.62762,0.37888c-0.20801,0.0426-0.44934-0.0058-0.60632-0.08951
	c-0.16254-0.08347-0.25439-0.17612-0.32764-0.25574c-0.13721-0.15378-0.21136-0.30869-0.24628-0.37088
	c-0.71899-1.31439-1.41687-2.64072-2.00024-4.03165c-0.10754-0.25641,0.01312-0.55145,0.26953-0.659
	C0.52809,6.76658,0.7757,6.84184,0.91004,7.02583z"/>
</svg>
